<svg width="100" height="49" viewBox="0 0 100 49" fill="none" xmlns="http://www.w3.org/2000/svg">
<path d="M90.0238 21.2231C84.2438 21.3558 78.3478 20.4609 72.5021 18.5627C63.4346 15.6177 54.0451 10.1673 45.0958 1.64375C42.9985 -0.362784 39.7995 -0.531393 37.5046 1.231L30.8456 6.24809C25.6706 10.2207 17.2958 10.5373 11.7805 6.9683L8.85315 5.07163C7.99179 4.51393 6.84586 4.71763 6.2294 5.53779C2.21252 10.8845 0 17.5114 0 24.197V41.824C0 42.9027 0.874328 43.7771 1.95312 43.7771H30.4688C31.5475 43.7771 32.4219 42.9027 32.4219 41.824V41.106C36.1 42.0261 41.1743 43.4269 47.554 45.2831C48.1056 45.4037 55.7388 48.0198 66.1751 48.0198C77.7527 48.0198 89.3402 44.8887 98.9563 39.8281C99.5979 39.4909 100 38.8248 100 38.1V29.8046C100 26.4049 96.1273 21.0827 90.0238 21.2231ZM72.8439 22.7558C78.6026 24.4602 84.404 25.2605 90.1131 25.1285C92.7254 25.0744 94.9631 26.6834 95.8069 28.9509C74.8505 41.9483 50.8102 34.0221 50.7912 34.0229C47.5105 33.0677 41.8831 31.4289 36.8324 30.1365C41.1446 25.7648 46.2387 27.0077 52.0218 28.4183C59.2529 30.183 66.9846 31.8981 72.8439 22.7558ZM3.90625 24.197C3.90625 18.9587 5.45959 13.7615 8.3107 9.37461L9.65729 10.2474C16.5848 14.7297 26.7159 14.3421 33.21 9.35707L39.8697 4.33998C40.6265 3.75862 41.713 3.81278 42.3988 4.46815C42.646 4.70466 42.9405 4.99534 43.4692 5.49278L41.9609 7.2895C41.2674 8.11576 41.3757 9.34791 42.202 10.0407C43.0328 10.7387 44.265 10.6213 44.9532 9.80033L46.3852 8.0944C47.2778 8.84971 48.2956 9.67521 49.4286 10.5427L47.9454 12.3112C47.2519 13.1374 47.3595 14.3696 48.1865 15.0631C49.0166 15.7589 50.2472 15.6444 50.9377 14.822L52.5925 12.849C53.624 13.5639 54.7211 14.2887 55.8807 15.0104L53.9314 17.3328C53.2379 18.1583 53.3455 19.3905 54.1718 20.084C55.0034 20.7821 56.2347 20.6646 56.9237 19.8437L59.2964 17.017C62.2345 18.6443 65.4816 20.1878 68.9911 21.4794C64.6553 27.4792 59.4269 26.2043 52.9472 24.6235C45.3629 22.7726 38.3804 21.5023 32.5737 29.1035C29.7295 28.4641 27.7557 28.1521 26.5625 28.1521H3.90625V24.197ZM96.0938 36.9068C70.6253 49.6654 48.9731 41.5287 48.6534 41.5348C47.3824 41.1655 31.8153 36.6741 30.4688 36.6741C29.39 36.6741 28.5156 37.5492 28.5156 38.6272V39.8708H3.90625V32.0583H26.5625C30.2567 32.0583 46.1914 36.7519 49.6986 37.7727C49.7192 37.7766 72.3351 46.0224 96.0938 33.2729V36.9068Z" fill="#364F6B"/>
</svg>
